{
	"asset":{
		"generator":"Khronos glTF Blender I/O v4.3.47",
		"version":"2.0"
	},
	"extensionsUsed":[
		"KHR_materials_emissive_strength"
	],
	"scene":0,
	"scenes":[
		{
			"name":"Scene",
			"nodes":[
				9
			]
		}
	],
	"nodes":[
		{
			"mesh":0,
			"name":"Standing_light_Black_material_0"
		},
		{
			"mesh":1,
			"name":"Standing_light_Glass_0"
		},
		{
			"mesh":2,
			"name":"Standing_light_Light2_0"
		},
		{
			"mesh":3,
			"name":"Standing_light_Metal_0"
		},
		{
			"mesh":4,
			"name":"Standing_light_White_material_0"
		},
		{
			"mesh":5,
			"name":"Standing_light_Yellow_material_0"
		},
		{
			"children":[
				0,
				1,
				2,
				3,
				4,
				5
			],
			"name":"Standing_light"
		},
		{
			"children":[
				6
			],
			"name":"RootNode"
		},
		{
			"children":[
				7
			],
			"name":"Standing_light.fbx"
		},
		{
			"children":[
				8
			],
			"name":"Sketchfab_model"
		}
	],
	"materials":[
		{
			"doubleSided":true,
			"name":"Black_material",
			"pbrMetallicRoughness":{
				"baseColorFactor":[
					0.21585999429225922,
					0.21585999429225922,
					0.2158609926700592,
					1
				],
				"metallicFactor":0,
				"roughnessFactor":0.9517322182655334
			}
		},
		{
			"alphaMode":"BLEND",
			"doubleSided":true,
			"name":"Glass",
			"pbrMetallicRoughness":{
				"baseColorFactor":[
					0.800000011920929,
					0.800000011920929,
					0.800000011920929,
					0.43123939633369446
				],
				"metallicFactor":0
			}
		},
		{
			"doubleSided":true,
			"emissiveFactor":[
				1,
				1,
				1
			],
			"extensions":{
				"KHR_materials_emissive_strength":{
					"emissiveStrength":10
				}
			},
			"name":"Light2",
			"pbrMetallicRoughness":{
				"baseColorFactor":[
					0.800000011920929,
					0.800000011920929,
					0.800000011920929,
					1
				],
				"metallicFactor":0,
				"roughnessFactor":0.8211145401000977
			}
		},
		{
			"doubleSided":true,
			"name":"Metal",
			"pbrMetallicRoughness":{
				"baseColorFactor":[
					0.5711240172386169,
					0.5711240172386169,
					0.5711249709129333,
					1
				],
				"roughnessFactor":0.8857752084732056
			}
		},
		{
			"doubleSided":true,
			"name":"White_material",
			"pbrMetallicRoughness":{
				"baseColorFactor":[
					0.7758219838142395,
					0.7454040050506592,
					0.6653879880905151,
					1
				],
				"metallicFactor":0,
				"roughnessFactor":0.8331683874130249
			}
		},
		{
			"doubleSided":true,
			"name":"Yellow_material",
			"pbrMetallicRoughness":{
				"baseColorFactor":[
					0.39718198776245117,
					0.3423539996147156,
					0.1309790015220642,
					1
				],
				"metallicFactor":0,
				"roughnessFactor":0.9242534041404724
			}
		}
	],
	"meshes":[
		{
			"name":"Standing_light_Black_material_0",
			"primitives":[
				{
					"attributes":{
						"POSITION":0,
						"NORMAL":1,
						"TEXCOORD_0":2
					},
					"indices":3,
					"material":0
				}
			]
		},
		{
			"name":"Standing_light_Glass_0",
			"primitives":[
				{
					"attributes":{
						"POSITION":4,
						"NORMAL":5,
						"TEXCOORD_0":6
					},
					"indices":7,
					"material":1
				}
			]
		},
		{
			"name":"Standing_light_Light2_0",
			"primitives":[
				{
					"attributes":{
						"POSITION":8,
						"NORMAL":9,
						"TEXCOORD_0":10
					},
					"indices":11,
					"material":2
				}
			]
		},
		{
			"name":"Standing_light_Metal_0",
			"primitives":[
				{
					"attributes":{
						"POSITION":12,
						"NORMAL":13,
						"TEXCOORD_0":14
					},
					"indices":15,
					"material":3
				}
			]
		},
		{
			"name":"Standing_light_White_material_0",
			"primitives":[
				{
					"attributes":{
						"POSITION":16,
						"NORMAL":17,
						"TEXCOORD_0":18
					},
					"indices":19,
					"material":4
				}
			]
		},
		{
			"name":"Standing_light_Yellow_material_0",
			"primitives":[
				{
					"attributes":{
						"POSITION":20,
						"NORMAL":21,
						"TEXCOORD_0":22
					},
					"indices":23,
					"material":5
				}
			]
		}
	],
	"accessors":[
		{
			"bufferView":0,
			"componentType":5126,
			"count":8637,
			"max":[
				0.3977581560611725,
				1.4661589860916138,
				0.3612344264984131
			],
			"min":[
				-0.25344786047935486,
				-0.0013709068298339844,
				-0.3482983410358429
			],
			"type":"VEC3"
		},
		{
			"bufferView":1,
			"componentType":5126,
			"count":8637,
			"type":"VEC3"
		},
		{
			"bufferView":2,
			"componentType":5126,
			"count":8637,
			"type":"VEC2"
		},
		{
			"bufferView":3,
			"componentType":5123,
			"count":26580,
			"type":"SCALAR"
		},
		{
			"bufferView":4,
			"componentType":5126,
			"count":329,
			"max":[
				0.02420368231832981,
				1.4589426517486572,
				0.2185194492340088
			],
			"min":[
				-0.01164183858782053,
				1.3665090799331665,
				-0.21915163099765778
			],
			"type":"VEC3"
		},
		{
			"bufferView":5,
			"componentType":5126,
			"count":329,
			"type":"VEC3"
		},
		{
			"bufferView":6,
			"componentType":5126,
			"count":329,
			"type":"VEC2"
		},
		{
			"bufferView":7,
			"componentType":5123,
			"count":549,
			"type":"SCALAR"
		},
		{
			"bufferView":8,
			"componentType":5126,
			"count":173,
			"max":[
				0.016384484246373177,
				1.4471757411956787,
				0.20606102049350739
			],
			"min":[
				-0.012628722004592419,
				1.3793613910675049,
				-0.20616288483142853
			],
			"type":"VEC3"
		},
		{
			"bufferView":9,
			"componentType":5126,
			"count":173,
			"type":"VEC3"
		},
		{
			"bufferView":10,
			"componentType":5126,
			"count":173,
			"type":"VEC2"
		},
		{
			"bufferView":11,
			"componentType":5123,
			"count":276,
			"type":"SCALAR"
		},
		{
			"bufferView":12,
			"componentType":5126,
			"count":2436,
			"max":[
				0.2507480978965759,
				1.4198580980300903,
				0.2326805144548416
			],
			"min":[
				-0.13588373363018036,
				0.052065491676330566,
				-0.23132571578025818
			],
			"type":"VEC3"
		},
		{
			"bufferView":13,
			"componentType":5126,
			"count":2436,
			"type":"VEC3"
		},
		{
			"bufferView":14,
			"componentType":5126,
			"count":2436,
			"type":"VEC2"
		},
		{
			"bufferView":15,
			"componentType":5123,
			"count":10104,
			"type":"SCALAR"
		},
		{
			"bufferView":16,
			"componentType":5126,
			"count":566,
			"max":[
				0.0201041791588068,
				1.4592359066009521,
				0.2186465710401535
			],
			"min":[
				-0.014648961834609509,
				1.3668912649154663,
				-0.2189932018518448
			],
			"type":"VEC3"
		},
		{
			"bufferView":17,
			"componentType":5126,
			"count":566,
			"type":"VEC3"
		},
		{
			"bufferView":18,
			"componentType":5126,
			"count":566,
			"type":"VEC2"
		},
		{
			"bufferView":19,
			"componentType":5123,
			"count":1152,
			"type":"SCALAR"
		},
		{
			"bufferView":20,
			"componentType":5126,
			"count":1320,
			"max":[
				0.3907083570957184,
				1.3003575801849365,
				0.3549560010433197
			],
			"min":[
				-0.20368346571922302,
				0.0068035125732421875,
				-0.34229204058647156
			],
			"type":"VEC3"
		},
		{
			"bufferView":21,
			"componentType":5126,
			"count":1320,
			"type":"VEC3"
		},
		{
			"bufferView":22,
			"componentType":5126,
			"count":1320,
			"type":"VEC2"
		},
		{
			"bufferView":23,
			"componentType":5123,
			"count":3210,
			"type":"SCALAR"
		}
	],
	"bufferViews":[
		{
			"buffer":0,
			"byteLength":103644,
			"byteOffset":0,
			"target":34962
		},
		{
			"buffer":0,
			"byteLength":103644,
			"byteOffset":103644,
			"target":34962
		},
		{
			"buffer":0,
			"byteLength":69096,
			"byteOffset":207288,
			"target":34962
		},
		{
			"buffer":0,
			"byteLength":53160,
			"byteOffset":276384,
			"target":34963
		},
		{
			"buffer":0,
			"byteLength":3948,
			"byteOffset":329544,
			"target":34962
		},
		{
			"buffer":0,
			"byteLength":3948,
			"byteOffset":333492,
			"target":34962
		},
		{
			"buffer":0,
			"byteLength":2632,
			"byteOffset":337440,
			"target":34962
		},
		{
			"buffer":0,
			"byteLength":1098,
			"byteOffset":340072,
			"target":34963
		},
		{
			"buffer":0,
			"byteLength":2076,
			"byteOffset":341172,
			"target":34962
		},
		{
			"buffer":0,
			"byteLength":2076,
			"byteOffset":343248,
			"target":34962
		},
		{
			"buffer":0,
			"byteLength":1384,
			"byteOffset":345324,
			"target":34962
		},
		{
			"buffer":0,
			"byteLength":552,
			"byteOffset":346708,
			"target":34963
		},
		{
			"buffer":0,
			"byteLength":29232,
			"byteOffset":347260,
			"target":34962
		},
		{
			"buffer":0,
			"byteLength":29232,
			"byteOffset":376492,
			"target":34962
		},
		{
			"buffer":0,
			"byteLength":19488,
			"byteOffset":405724,
			"target":34962
		},
		{
			"buffer":0,
			"byteLength":20208,
			"byteOffset":425212,
			"target":34963
		},
		{
			"buffer":0,
			"byteLength":6792,
			"byteOffset":445420,
			"target":34962
		},
		{
			"buffer":0,
			"byteLength":6792,
			"byteOffset":452212,
			"target":34962
		},
		{
			"buffer":0,
			"byteLength":4528,
			"byteOffset":459004,
			"target":34962
		},
		{
			"buffer":0,
			"byteLength":2304,
			"byteOffset":463532,
			"target":34963
		},
		{
			"buffer":0,
			"byteLength":15840,
			"byteOffset":465836,
			"target":34962
		},
		{
			"buffer":0,
			"byteLength":15840,
			"byteOffset":481676,
			"target":34962
		},
		{
			"buffer":0,
			"byteLength":10560,
			"byteOffset":497516,
			"target":34962
		},
		{
			"buffer":0,
			"byteLength":6420,
			"byteOffset":508076,
			"target":34963
		}
	],
	"buffers":[
		{
			"byteLength":514496,
			"uri":"scene.bin"
		}
	]
}
