{
  "accessors": [
    {
      "bufferView": 2,
      "componentType": 5126,
      "count": 1819,
      "max": [
        0.23760700225830078,
        0.23760700225830078,
        8.438695907592773
      ],
      "min": [
        -0.23760700225830078,
        -0.23760800063610077,
        0.0
      ],
      "type": "VEC3"
    },
    {
      "bufferView": 2,
      "byteOffset": 21828,
      "componentType": 5126,
      "count": 1819,
      "max": [
        1.0,
        1.0,
        0.9896280169487
      ],
      "min": [
        -1.0,
        -1.0,
        -1.0
      ],
      "type": "VEC3"
    },
    {
      "bufferView": 3,
      "componentType": 5126,
      "count": 1819,
      "max": [
        1.0,
        1.0,
        0.9999920129776001,
        1.0
      ],
      "min": [
        -1.0,
        -1.0,
        -1.0,
        1.0
      ],
      "type": "VEC4"
    },
    {
      "bufferView": 1,
      "componentType": 5126,
      "count": 1819,
      "max": [
        0.9955649971961975,
        0.9143999814987183
      ],
      "min": [
        0.004435000009834766,
        0.004435000009834766
      ],
      "type": "VEC2"
    },
    {
      "bufferView": 0,
      "componentType": 5125,
      "count": 8016,
      "type": "SCALAR"
    },
    {
      "bufferView": 2,
      "byteOffset": 43656,
      "componentType": 5126,
      "count": 591,
      "max": [
        0.2117130011320114,
        0.2117130011320114,
        2.380207061767578
      ],
      "min": [
        -0.2117130011320114,
        -0.2117130011320114,
        2.059398889541626
      ],
      "type": "VEC3"
    },
    {
      "bufferView": 2,
      "byteOffset": 50748,
      "componentType": 5126,
      "count": 591,
      "max": [
        1.0,
        1.0,
        1.0
      ],
      "min": [
        -1.0,
        -1.0,
        -0.9325460195541382
      ],
      "type": "VEC3"
    },
    {
      "bufferView": 3,
      "byteOffset": 29104,
      "componentType": 5126,
      "count": 591,
      "max": [
        1.0,
        1.0,
        0.9341127276420593,
        -1.0
      ],
      "min": [
        -1.0,
        -1.0,
        -0.9982467889785767,
        -1.0
      ],
      "type": "VEC4"
    },
    {
      "bufferView": 1,
      "byteOffset": 14552,
      "componentType": 5126,
      "count": 591,
      "max": [
        0.8972020149230957,
        0.9543520212173462
      ],
      "min": [
        0.004435000009834766,
        0.6045899987220764
      ],
      "type": "VEC2"
    },
    {
      "bufferView": 0,
      "byteOffset": 32064,
      "componentType": 5125,
      "count": 2064,
      "type": "SCALAR"
    },
    {
      "bufferView": 2,
      "byteOffset": 57840,
      "componentType": 5126,
      "count": 153,
      "max": [
        0.28912198543548584,
        0.28912198543548584,
        2.4449551105499268
      ],
      "min": [
        -0.28912198543548584,
        -0.28912198543548584,
        1.879770040512085
      ],
      "type": "VEC3"
    },
    {
      "bufferView": 2,
      "byteOffset": 59676,
      "componentType": 5126,
      "count": 153,
      "max": [
        1.0,
        1.0,
        0.5173500180244446
      ],
      "min": [
        -1.0,
        -1.0,
        -0.5173451900482178
      ],
      "type": "VEC3"
    },
    {
      "bufferView": 3,
      "byteOffset": 38560,
      "componentType": 5126,
      "count": 153,
      "max": [
        0.5173477530479431,
        0.5173486471176147,
        -0.8538435101509094,
        1.0
      ],
      "min": [
        -0.51734858751297,
        -0.51734858751297,
        -0.9998787641525269,
        1.0
      ],
      "type": "VEC4"
    },
    {
      "bufferView": 1,
      "byteOffset": 19280,
      "componentType": 5126,
      "count": 153,
      "max": [
        0.6441540122032166,
        0.6373559832572937
      ],
      "min": [
        0.38390201330184937,
        0.004435000009834766
      ],
      "type": "VEC2"
    },
    {
      "bufferView": 0,
      "byteOffset": 40320,
      "componentType": 5125,
      "count": 768,
      "type": "SCALAR"
    },
    {
      "bufferView": 2,
      "byteOffset": 61512,
      "componentType": 5126,
      "count": 114,
      "max": [
        0.1053519994020462,
        0.1053519994020462,
        2.2935099601745605
      ],
      "min": [
        -0.1053519994020462,
        -0.1053519994020462,
        2.027195930480957
      ],
      "type": "VEC3"
    },
    {
      "bufferView": 2,
      "byteOffset": 62880,
      "componentType": 5126,
      "count": 114,
      "max": [
        0.9998804926872253,
        0.9998804926872253,
        1.0
      ],
      "min": [
        -0.9998804926872253,
        -0.9998804926872253,
        -1.0
      ],
      "type": "VEC3"
    },
    {
      "bufferView": 3,
      "byteOffset": 41008,
      "componentType": 5126,
      "count": 114,
      "max": [
        0.999980628490448,
        0.9998345971107483,
        0.5764253735542297,
        1.0
      ],
      "min": [
        -0.999053418636322,
        -0.9942387938499451,
        -0.4922024607658386,
        1.0
      ],
      "type": "VEC4"
    },
    {
      "bufferView": 1,
      "byteOffset": 20504,
      "componentType": 5126,
      "count": 114,
      "max": [
        0.31008800864219666,
        0.7808809876441956
      ],
      "min": [
        0.1849379986524582,
        0.48279300332069397
      ],
      "type": "VEC2"
    },
    {
      "bufferView": 0,
      "byteOffset": 43392,
      "componentType": 5125,
      "count": 576,
      "type": "SCALAR"
    }
  ],
  "asset": {
    "extras": {
      "author": "Sousinho (https://sketchfab.com/sousinho)",
      "license": "CC-BY-4.0 (http://creativecommons.org/licenses/by/4.0/)",
      "source": "https://sketchfab.com/3d-models/lamp-post-light-ff5e3bc99dd146d986cb662813ec988e",
      "title": "Lamp post light"
    },
    "generator": "Sketchfab-15.19.0",
    "version": "2.0"
  },
  "bufferViews": [
    {
      "buffer": 0,
      "byteLength": 45696,
      "name": "floatBufferViews",
      "target": 34963
    },
    {
      "buffer": 0,
      "byteLength": 21416,
      "byteOffset": 45696,
      "byteStride": 8,
      "name": "floatBufferViews",
      "target": 34962
    },
    {
      "buffer": 0,
      "byteLength": 64248,
      "byteOffset": 67112,
      "byteStride": 12,
      "name": "floatBufferViews",
      "target": 34962
    },
    {
      "buffer": 0,
      "byteLength": 42832,
      "byteOffset": 131360,
      "byteStride": 16,
      "name": "floatBufferViews",
      "target": 34962
    }
  ],
  "buffers": [
    {
      "byteLength": 174192,
      "uri": "gltf.bin"
    }
  ],
  "extensionsUsed": [
    "KHR_materials_emissive_strength"
  ],
  "images": [
    {
      "uri": "textures/T_lamp_post_2_1001_baseColor.jpeg"
    },
    {
      "uri": "textures/T_lamp_post_2_1001_metallicRoughness.png"
    },
    {
      "uri": "textures/T_lamp_post_2_1001_emissive.jpeg"
    },
    {
      "uri": "textures/T_lamp_post_2_1001_normal.png"
    },
    {
      "uri": "textures/T_light_glass_1001_baseColor.png"
    },
    {
      "uri": "textures/T_light_glass_1001_metallicRoughness.png"
    },
    {
      "uri": "textures/T_light_glass_1001_normal.png"
    }
  ],
  "materials": [
    {
      "doubleSided": true,
      "emissiveFentity": [
        1.0,
        1.0,
        1.0
      ],
      "emissiveTexture": {
        "index": 2
      },
      "extensions": {
        "KHR_materials_emissive_strength": {
          "emissiveStrength": 10.0
        }
      },
      "name": "T_lamp_post_2_1001",
      "normalTexture": {
        "index": 3
      },
      "occlusionTexture": {
        "index": 1
      },
      "pbrMetallicRoughness": {
        "baseColorTexture": {
          "index": 0
        },
        "metallicRoughnessTexture": {
          "index": 1
        }
      }
    },
    {
      "alphaMode": "BLEND",
      "doubleSided": true,
      "name": "T_light_glass_1001",
      "normalTexture": {
        "index": 6
      },
      "occlusionTexture": {
        "index": 5
      },
      "pbrMetallicRoughness": {
        "baseColorTexture": {
          "index": 4
        },
        "metallicRoughnessTexture": {
          "index": 5
        }
      }
    }
  ],
  "meshes": [
    {
      "name": "defaultMaterial",
      "primitives": [
        {
          "attributes": {
            "NORMAL": 1,
            "POSITION": 0,
            "TANGENT": 2,
            "TEXCOORD_0": 3
          },
          "indices": 4,
          "material": 0,
          "mode": 4
        }
      ]
    },
    {
      "name": "defaultMaterial",
      "primitives": [
        {
          "attributes": {
            "NORMAL": 6,
            "POSITION": 5,
            "TANGENT": 7,
            "TEXCOORD_0": 8
          },
          "indices": 9,
          "material": 0,
          "mode": 4
        }
      ]
    },
    {
      "name": "defaultMaterial",
      "primitives": [
        {
          "attributes": {
            "NORMAL": 11,
            "POSITION": 10,
            "TANGENT": 12,
            "TEXCOORD_0": 13
          },
          "indices": 14,
          "material": 1,
          "mode": 4
        }
      ]
    },
    {
      "name": "defaultMaterial",
      "primitives": [
        {
          "attributes": {
            "NORMAL": 16,
            "POSITION": 15,
            "TANGENT": 17,
            "TEXCOORD_0": 18
          },
          "indices": 19,
          "material": 0,
          "mode": 4
        }
      ]
    }
  ],
  "nodes": [
    {
      "children": [
        1
      ],
      "matrix": [
        1.0,
        0.0,
        0.0,
        0.0,
        0.0,
        2.220446049250313e-16,
        -1.0,
        0.0,
        0.0,
        1.0,
        2.220446049250313e-16,
        0.0,
        0.0,
        0.0,
        0.0,
        1.0
      ],
      "name": "Sketchfab_model"
    },
    {
      "children": [
        2
      ],
      "matrix": [
        1.0,
        0.0,
        0.0,
        0.0,
        0.0,
        -4.371139006309477e-08,
        0.999999999999999,
        0.0,
        0.0,
        -0.999999999999999,
        -4.371139006309477e-08,
        0.0,
        0.0,
        0.0,
        0.0,
        1.0
      ],
      "name": "Collada visual scene group"
    },
    {
      "children": [
        3,
        4,
        6,
        8
      ],
      "matrix": [
        100.0,
        0.0,
        0.0,
        0.0,
        0.0,
        -1.6e-05,
        -100.0,
        0.0,
        0.0,
        100.0,
        -1.6e-05,
        0.0,
        0.0,
        -0.919938,
        -1.5e-05,
        1.0
      ],
      "name": "SM_lamp_post.002"
    },
    {
      "mesh": 0,
      "name": "defaultMaterial"
    },
    {
      "children": [
        5
      ],
      "matrix": [
        1.0,
        0.0,
        0.0,
        0.0,
        0.0,
        1.0,
        0.0,
        0.0,
        0.0,
        0.0,
        1.0,
        0.0,
        0.0,
        0.0,
        6.922944,
        1.0
      ],
      "name": "SM_lamp_tip.001"
    },
    {
      "mesh": 1,
      "name": "defaultMaterial"
    },
    {
      "children": [
        7
      ],
      "matrix": [
        1.0,
        0.0,
        0.0,
        0.0,
        0.0,
        1.0,
        0.0,
        0.0,
        0.0,
        0.0,
        1.0,
        0.0,
        0.0,
        0.0,
        6.558926,
        1.0
      ],
      "name": "SM_lamp_glass.002"
    },
    {
      "mesh": 2,
      "name": "defaultMaterial"
    },
    {
      "children": [
        9
      ],
      "matrix": [
        1.0,
        0.0,
        0.0,
        0.0,
        0.0,
        1.0,
        0.0,
        0.0,
        0.0,
        0.0,
        1.0,
        0.0,
        0.0,
        -1e-06,
        6.752359,
        1.0
      ],
      "name": "SM_bulb.001"
    },
    {
      "mesh": 3,
      "name": "defaultMaterial"
    }
  ],
  "samplers": [
    {
      "magFilter": 9729,
      "minFilter": 9987,
      "wrapS": 10497,
      "wrapT": 10497
    }
  ],
  "scene": 0,
  "scenes": [
    {
      "name": "Sketchfab_Scene",
      "nodes": [
        0
      ]
    }
  ],
  "textures": [
    {
      "sampler": 0,
      "source": 0
    },
    {
      "sampler": 0,
      "source": 1
    },
    {
      "sampler": 0,
      "source": 2
    },
    {
      "sampler": 0,
      "source": 3
    },
    {
      "sampler": 0,
      "source": 4
    },
    {
      "sampler": 0,
      "source": 5
    },
    {
      "sampler": 0,
      "source": 6
    }
  ]
}
